# xmcd
# Track frame offsets:
# 150
# 16867
# 37167
# 49850
# 65625
# 81570
# 96507
# 115550
# 133787
# 145675
# 161755
# 179817
#
# Disc length: 2541 seconds
# Revision: 0
# Processed by: cddbd v1.5.2PL0 Copyright (c) Steve Scherf et al.
# Submitted via: VisiTrax 2.11.3.279 - For more info visit www.synapsa.com
#
DISCID=b109eb0c
DTITLE=Johnny Chester - Listen
DYEAR=2002
DGENRE=Country
TTITLE0=I'll Do The Best I Can
TTITLE1=Tie A Knot In Your Hanky
TTITLE2=Tailor Made Love
TTITLE3=Home In Sorrento
TTITLE4=Home Made Love
TTITLE5=Love Brings A Smile
TTITLE6=The Smile
TTITLE7=Uncle Dad
TTITLE8=The Day That I Stop Loving You
TTITLE9=Camooweal
TTITLE10=Where The Roper Flows Tonight
TTITLE11=Big In Biggenden
EXTD=
EXTT0=
EXTT1=
EXTT2=
EXTT3=
EXTT4=
EXTT5=
EXTT6=
EXTT7=
EXTT8=
EXTT9=
EXTT10=
EXTT11=
PLAYORDER=
